<svg xmlns="http://www.w3.org/2000/svg" xml:space="preserve" width="87.438" height="87.234">
  <g fill="#AAAAAA">
    <path d="M3.565 34.036 5.59 23.061c.359-1.895.588-3.561.785-4.934h3.299l-.359 2.778h.064c1.471-2.125 3.464-3.137 5.554-3.137 2.482 0 3.593 1.6 3.724 3.268 1.438-2.157 3.43-3.234 5.652-3.268 2.156 0 3.854 1.405 3.854 4.247 0 .686-.129 1.862-.26 2.711l-1.731 9.311h-3.691l1.633-8.885c.13-.621.229-1.373.229-1.994 0-1.372-.556-2.286-1.928-2.286-1.764 0-3.691 2.189-4.311 5.554l-1.405 7.611h-3.691l1.731-9.016c.098-.654.196-1.273.196-1.862 0-1.176-.359-2.286-1.927-2.286-1.764 0-3.79 2.417-4.377 5.651l-1.372 7.513H3.565zM42.211 33.122c-1.568.816-3.692 1.274-5.619 1.274-4.41 0-6.534-2.712-6.534-6.599 0-4.802 3.528-10.029 9.017-10.029 3.136 0 5.128 1.796 5.128 4.475 0 4.084-4.279 5.39-10.42 5.259-.066.556.065 1.635.424 2.254.621 1.079 1.764 1.633 3.267 1.633a9.407 9.407 0 0 0 4.378-1.044l.359 2.777zM38.586 20.61c-2.386 0-3.954 2.124-4.412 4.052 3.921.033 6.437-.49 6.437-2.418 0-1.013-.818-1.634-2.025-1.634zM44.727 34.036l4.409-23.193h3.822l-4.443 23.193h-3.788zM68.28 24.335c0 5.422-3.757 10.062-9.179 10.062-4.019 0-6.501-2.777-6.501-6.566 0-5.39 3.757-10.062 9.18-10.062 4.279-.001 6.5 3.069 6.5 6.566zm-11.76 3.397c0 2.189 1.143 3.723 3.104 3.723 2.842 0 4.735-3.918 4.735-7.088 0-1.633-.751-3.658-3.037-3.658-3.037 0-4.802 4.05-4.802 7.023zM69.294 34.036l2.06-10.976c.39-1.895.619-3.561.816-4.934h3.396l-.36 2.843h.066c1.469-2.123 3.495-3.202 5.717-3.202 2.287 0 4.051 1.372 4.051 4.378 0 .718-.131 1.829-.295 2.613l-1.729 9.277h-3.823l1.699-8.984c.098-.588.196-1.273.196-1.895 0-1.338-.491-2.286-1.993-2.286-1.732 0-3.952 2.091-4.639 5.814l-1.373 7.35h-3.789z"/>
  </g>
  <path fill="#DF1C4A" d="M9.465 39.336c4.208 14.543 17.614 25.182 33.514 25.182 15.898 0 29.307-10.639 33.514-25.182H9.465z"/>
  <circle cx="64.564" cy="72.072" r="4.318" fill="#AAAAAA"/>
  <circle cx="18.517" cy="72.072" r="4.317" fill="#AAAAAA"/>
  <path fill="#AAAAAA" d="M64.563 76.39h-14.15l13.432-2.039M18.757 76.39H4.607l13.431-2.039"/>
  <path fill="#FFF" d="M27.393 58.744c-1.01.488-2.716.977-4.876.977-4.25 0-6.862-2.717-6.862-6.76 0-5.922 4.493-10.902 10.763-10.902 1.499 0 2.822.348 3.484.627l-1.045 3.171c-.627-.28-1.428-.523-2.578-.523-3.902 0-6.375 3.588-6.375 7.142 0 2.543 1.462 3.969 3.728 3.969a8.422 8.422 0 0 0 3.588-.799l.173 3.098zM40.283 59.371c0-1.01.14-2.367.278-3.797h-.068c-1.672 3.1-3.937 4.182-6.097 4.182-3.03 0-5.016-2.369-5.016-5.783 0-5.783 4.041-11.949 11.948-11.949 1.846 0 3.833.349 5.156.767l-1.775 8.849c-.488 2.508-.767 5.713-.697 7.732h-3.729zm1.638-14.038c-.418-.104-.94-.174-1.672-.174-3.727 0-6.653 4.215-6.653 8.081 0 1.777.661 3.24 2.438 3.24 1.916 0 4.214-2.369 5.016-6.689l.871-4.458zM47.321 59.371l1.985-10.45c.453-2.403.696-5.017.871-6.515h3.519c-.104 1.15-.21 2.334-.384 3.554h.105c1.149-2.265 2.994-3.937 5.294-3.937.314 0 .628.035.907.035l-.803 3.971c-.209-.033-.488-.033-.766-.033-2.891 0-4.738 2.925-5.4 6.547l-1.287 6.828h-4.041zM68.221 38.052l-.802 4.354h3.798l-.627 3.136h-3.798l-1.322 6.827c-.175.801-.313 1.674-.313 2.404 0 .939.417 1.533 1.496 1.533.487 0 .977-.035 1.395-.105l-.385 3.17c-.591.244-1.671.35-2.646.35-2.787 0-4.007-1.533-4.007-3.482 0-.943.104-1.883.349-3.137l1.464-7.56h-2.266l.593-3.136h2.265l.626-3.169 4.18-1.185z"/>
  <path fill="#185F30" d="M78.737 39.336c-4.269 15.75-18.657 27.34-35.758 27.34-17.102 0-31.49-11.59-35.759-27.34H2.398c4.378 18.361 20.88 32.018 40.582 32.018 19.7 0 36.202-13.656 40.581-32.018h-4.824z"/>
</svg>