<svg xmlns="http://www.w3.org/2000/svg" xml:space="preserve" width="410" height="110">
  <path fill="#BC3B4B" d="M229.269 16.347c10.184 35.197 42.628 60.942 81.107 60.942s70.925-25.745 81.108-60.942H229.269z"/>
  <path fill="#525254" d="M373.062 95.574c0 5.767-4.679 10.445-10.446 10.445-5.771 0-10.45-4.679-10.45-10.445 0-5.771 4.679-10.449 10.45-10.449 5.767 0 10.446 4.678 10.446 10.449z"/>
  <circle cx="251.174" cy="95.574" r="10.448" fill="#525254"/>
  <path fill="#525254" d="M362.615 106.02h-34.246l32.506-4.932M251.755 106.02h-34.243l32.505-4.932"/>
  <g fill="#525254">
    <path d="M1.412 64.836 6.639 36.51c.927-4.89 1.517-9.189 2.023-12.732h8.514l-.927 7.168h.167c3.795-5.482 8.938-8.095 14.333-8.095 6.407 0 9.273 4.13 9.61 8.432 3.709-5.565 8.852-8.346 14.585-8.432 5.563 0 9.947 3.626 9.947 10.959 0 1.77-.334 4.807-.671 6.997l-4.469 24.029h-9.527l4.214-22.93c.337-1.603.59-3.543.59-5.146 0-3.54-1.434-5.9-4.974-5.9-4.553 0-9.526 5.649-11.126 14.333l-3.626 19.643h-9.526l4.469-23.27c.251-1.686.504-3.286.504-4.806 0-3.034-.927-5.9-4.973-5.9-4.553 0-9.78 6.24-11.297 14.585l-3.541 19.391H1.412zM101.148 62.476c-4.047 2.107-9.529 3.287-14.5 3.287-11.382 0-16.862-6.999-16.862-17.029 0-12.393 9.104-25.882 23.269-25.882 8.093 0 13.234 4.636 13.234 11.549 0 10.54-11.043 13.911-26.891 13.572-.171 1.435.167 4.218 1.094 5.817 1.603 2.783 4.553 4.216 8.43 4.216 4.639 0 8.347-1.179 11.299-2.696l.927 7.166zm-9.356-32.292c-6.156 0-10.203 5.482-11.385 10.456 10.119.086 16.611-1.266 16.611-6.24 0-2.612-2.109-4.216-5.226-4.216zM107.641 64.836l11.38-59.855h9.864l-11.466 59.855h-9.778zM168.425 39.797c0 13.993-9.696 25.966-23.689 25.966-10.37 0-16.776-7.166-16.776-16.945 0-13.911 9.693-25.966 23.689-25.966 11.043-.001 16.776 7.923 16.776 16.945zm-30.349 8.766c0 5.649 2.949 9.609 8.009 9.609 7.334 0 12.222-10.113 12.222-18.292 0-4.214-1.938-9.44-7.838-9.44-7.84 0-12.393 10.453-12.393 18.123zM171.041 64.836l5.312-28.326c1.011-4.89 1.601-9.189 2.107-12.732h8.769l-.929 7.336h.169c3.791-5.48 9.02-8.263 14.753-8.263 5.901 0 10.453 3.541 10.453 11.298 0 1.854-.336 4.72-.759 6.744l-4.467 23.943h-9.867l4.386-23.185c.253-1.517.507-3.288.507-4.89 0-3.455-1.267-5.9-5.144-5.9-4.47 0-10.202 5.396-11.972 15.006l-3.54 18.97h-9.778z"/>
  </g>
  <path fill="#FFF" d="M272.656 63.318c-2.444 1.182-6.575 2.36-11.802 2.36-10.285 0-16.605-6.576-16.605-16.355 0-14.333 10.873-26.386 26.047-26.386 3.627 0 6.83.841 8.432 1.517l-2.529 7.673c-1.517-.676-3.457-1.266-6.239-1.266-9.443 0-15.427 8.683-15.427 17.282 0 6.153 3.539 9.61 9.021 9.61 3.793 0 6.659-1.011 8.684-1.939l.418 7.504zM303.853 64.836c0-2.445.338-5.733.674-9.19h-.166c-4.047 7.504-9.528 10.117-14.756 10.117-7.333 0-12.14-5.732-12.14-13.996 0-13.993 9.78-28.916 28.916-28.916 4.469 0 9.275.844 12.479 1.855l-4.299 21.413c-1.183 6.071-1.856 13.825-1.688 18.717h-9.02zm3.962-33.976c-1.013-.253-2.276-.42-4.046-.42-9.02 0-16.103 10.2-16.103 19.556 0 4.3 1.6 7.844 5.902 7.844 4.635 0 10.2-5.733 12.14-16.189l2.107-10.791zM320.885 64.836l4.804-25.292c1.098-5.816 1.687-12.14 2.109-15.766h8.514c-.253 2.785-.506 5.649-.927 8.6h.253c2.781-5.479 7.248-9.526 12.813-9.526.759 0 1.518.086 2.194.086l-1.94 9.61c-.508-.083-1.181-.083-1.854-.083-6.996 0-11.466 7.08-13.069 15.848l-3.116 16.524h-9.781zM371.465 13.241l-1.938 10.537h9.19l-1.518 7.589h-9.189l-3.203 16.523c-.423 1.939-.76 4.047-.76 5.817 0 2.276 1.011 3.709 3.623 3.709 1.181 0 2.363-.084 3.374-.253l-.928 7.673c-1.433.59-4.047.843-6.406.843-6.747 0-9.696-3.709-9.696-8.429 0-2.28.254-4.554.843-7.591l3.543-18.292h-5.482l1.434-7.589h5.482l1.517-7.67 10.114-2.867z"/>
  <path fill="#3A5C30" d="M396.915 16.347c-10.331 38.118-45.151 66.167-86.539 66.167-41.389 0-76.209-28.049-86.54-66.167h-11.672c10.597 44.435 50.533 77.484 98.212 77.484 47.678 0 87.614-33.05 98.212-77.484h-11.673z"/>
  <path fill="#DADBDC" d="M233.47 70.903H66.311l177.607 6.967z"/>
</svg>
